<svg version="1.2" baseProfile="tiny" xmlns="http://www.w3.org/2000/svg" xmlns:xlink="http://www.w3.org/1999/xlink" x="0px" y="0px" width="277.6px" height="277.6px" viewBox="0 0 277.6 277.6" xml:space="preserve">
<defs>
</defs>
<g>
	<path fill="#1A1A1A" d="M9,9v259.6h259.6V9H9z"></path>
	<path fill="#FFFFFF" d="M268.6,9v259.6H9V9H268.6 M277.6,0h-9H9H0v9v259.6v9h9h259.6h9v-9V9V0L277.6,0z"></path>
</g>
<path fill="#FFFFFF" d="M244.8,244c-11,0-16.6-7.7-21.2-13.9c-4.7-6.4-7.9-10.4-14.2-10.4c-6.3,0-9.5,4-14.2,10.4
	c-4.5,6.2-10.1,13.9-21.1,13.9c-11,0-16.6-7.7-21.2-13.9c-4.7-6.4-7.9-10.4-14.2-10.4c-6.3,0-9.5,4-14.2,10.4
	c-4.5,6.2-10.1,13.9-21.2,13.9c-11,0-16.6-7.7-21.2-13.9c-4.7-6.4-7.9-10.4-14.2-10.4c-6.3,0-9.5,4-14.2,10.4
	c-4.5,6.2-10.1,13.9-21.2,13.9v-8.6c6.3,0,9.5-4,14.2-10.4c4.5-6.2,10.1-13.9,21.2-13.9c11,0,16.6,7.7,21.2,13.9
	c4.7,6.4,7.9,10.4,14.2,10.4c6.3,0,9.5-3.9,14.2-10.4c4.5-6.2,10.1-13.9,21.2-13.9c11,0,16.6,7.7,21.2,13.9
	c4.7,6.4,7.9,10.4,14.2,10.4c6.3,0,9.5-4,14.2-10.4c4.5-6.2,10.1-13.9,21.1-13.9c11,0,16.6,7.7,21.2,13.9
	c4.7,6.4,7.9,10.4,14.2,10.4V244z M244.8,206.1c-10.9,0-16.5-6.8-21-12.2c-4.2-5.1-7.5-9.1-14.4-9.1c-6.8,0-10.1,4-14.3,9.1
	c-4.5,5.4-10.1,12.2-21,12.2c-10.9,0-16.5-6.8-21-12.2c-4.2-5.1-7.5-9.1-14.4-9.1c-6.8,0-10.1,4-14.4,9.1
	c-4.5,5.4-10.1,12.2-21,12.2c-10.9,0-16.5-6.8-21-12.2c-4.2-5.1-7.5-9.1-14.4-9.1c-6.8,0-10.1,4-14.4,9.1
	c-4.5,5.4-10.1,12.2-21,12.2v-8.6c6.8,0,10.1-4,14.4-9.1c4.5-5.4,10.1-12.2,21-12.2c10.9,0,16.5,6.8,21,12.2
	c4.2,5.1,7.5,9.1,14.4,9.1c6.8,0,10.1-4,14.4-9.1c4.5-5.4,10.1-12.2,21-12.2c10.9,0,16.5,6.8,21,12.2c4.2,5.1,7.5,9.1,14.4,9.1
	c6.8,0,10.1-4,14.3-9.1c4.5-5.4,10.1-12.2,21-12.2c10.9,0,16.5,6.8,21,12.2c4.2,5.1,7.5,9.1,14.4,9.1V206.1z M244.8,169.7
	c-10.4,0-15.8-4.6-20.5-8.6c-4.3-3.7-7.6-6.6-14.9-6.6c-7.2,0-10.6,2.9-14.9,6.6c-4.7,4.1-10,8.6-20.5,8.6
	c-10.4,0-15.8-4.6-20.5-8.6c-4.3-3.7-7.6-6.6-14.9-6.6c-7.2,0-10.6,2.9-14.9,6.6c-4.7,4.1-10,8.6-20.5,8.6S87.7,165.1,83,161
	c-4.3-3.7-7.6-6.6-14.9-6.6c-7.2,0-10.6,2.9-14.9,6.6c-4.7,4.1-10,8.6-20.5,8.6v-8.6c7.2,0,10.6-2.9,14.9-6.6
	c4.7-4.1,10-8.6,20.5-8.6c10.4,0,15.8,4.6,20.5,8.6c4.3,3.7,7.6,6.6,14.9,6.6c7.2,0,10.6-2.9,14.9-6.6c4.7-4.1,10-8.6,20.5-8.6
	c10.4,0,15.8,4.6,20.5,8.6c4.3,3.7,7.6,6.6,14.9,6.6c7.2,0,10.6-2.9,14.9-6.6c4.7-4.1,10-8.6,20.5-8.6c10.4,0,15.8,4.6,20.5,8.6
	c4.3,3.7,7.6,6.6,14.9,6.6V169.7z M244.8,134.8c-9.9,0-15.1-2.7-19.6-5c-4.2-2.2-7.9-4.1-15.7-4.1c-7.8,0-11.4,1.9-15.7,4.1
	c-4.6,2.4-9.8,5-19.6,5c-9.9,0-15.1-2.7-19.6-5c-4.2-2.2-7.9-4.1-15.7-4.1c-7.8,0-11.5,1.9-15.7,4.1c-4.6,2.4-9.8,5-19.6,5
	c-9.9,0-15.1-2.7-19.6-5c-4.2-2.2-7.9-4.1-15.7-4.1s-11.5,1.9-15.7,4.1c-4.6,2.4-9.8,5-19.6,5v-8.6c7.8,0,11.5-1.9,15.7-4.1
	c4.6-2.4,9.8-5,19.6-5c9.9,0,15.1,2.7,19.6,5c4.2,2.2,7.9,4.1,15.7,4.1s11.5-1.9,15.7-4.1c4.6-2.4,9.8-5,19.6-5
	c9.9,0,15.1,2.7,19.6,5c4.2,2.2,7.9,4.1,15.7,4.1c7.8,0,11.5-1.9,15.7-4.1c4.6-2.4,9.8-5,19.6-5c9.9,0,15.1,2.7,19.6,5
	c4.2,2.2,7.9,4.1,15.7,4.1V134.8z M244.8,101.7c-9.2,0-13.9-0.8-18.4-1.6c-4.4-0.8-8.5-1.5-16.9-1.5c-8.5,0-12.6,0.7-16.9,1.5
	c-4.5,0.8-9.2,1.6-18.4,1.6c-9.2,0-13.9-0.8-18.4-1.6c-4.4-0.8-8.5-1.5-16.9-1.5c-8.5,0-12.6,0.7-16.9,1.5
	c-4.5,0.8-9.2,1.6-18.4,1.6c-9.2,0-13.9-0.8-18.4-1.6c-4.4-0.8-8.5-1.5-16.9-1.5c-8.5,0-12.6,0.7-16.9,1.5
	c-4.5,0.8-9.2,1.6-18.4,1.6v-8.6c8.5,0,12.6-0.7,16.9-1.5c4.5-0.8,9.2-1.6,18.4-1.6c9.2,0,13.9,0.8,18.4,1.6
	c4.4,0.7,8.5,1.5,16.9,1.5c8.5,0,12.6-0.7,16.9-1.5c4.5-0.8,9.2-1.6,18.4-1.6c9.2,0,13.9,0.8,18.4,1.6c4.4,0.7,8.5,1.5,16.9,1.5
	c8.5,0,12.6-0.7,16.9-1.5c4.5-0.8,9.2-1.6,18.4-1.6c9.2,0,13.9,0.8,18.4,1.6c4.4,0.7,8.5,1.5,16.9,1.5V101.7z M244.8,70.7h-212v-8.6
	h212V70.7z M244.8,41.8h-212v-8.6h212V41.8z"></path>
</svg>
